<svg id="Layer_1" data-name="Layer 1" xmlns="http://www.w3.org/2000/svg" viewBox="0 0 200 298.65"><path d="M94.48.06A61.79,61.79,0,0,0,70.15,8a59.35,59.35,0,0,0-17.7,86.41A83.29,83.29,0,0,0,65.25,107,61,61,0,0,0,90,117.43a68.39,68.39,0,0,0,20,0A61,61,0,0,0,134.75,107a83.29,83.29,0,0,0,12.8-12.67,60.24,60.24,0,0,0,10.79-25.15c.56-2.89.68-4.73.68-10.13,0-7.48-.49-10.92-2.39-17.24A59.51,59.51,0,0,0,117.27,2.46,53.32,53.32,0,0,0,101.07,0C98,0,95.06,0,94.48.06Z" fill="#edc949"/><path d="M50.15,136.57a75.24,75.24,0,0,0-10,2A55.41,55.41,0,0,0,.34,186.14c-.22,2-.34,21.13-.34,57.76v54.75H200V243.9c0-36.35-.12-55.77-.34-57.76a55.64,55.64,0,0,0-40.15-47.7c-7.12-2-3.13-1.87-58.28-1.93C73.65,136.51,50.67,136.51,50.15,136.57Z" fill="#edc949"/></svg>